<?xml version="1.0" encoding="UTF-8" standalone="no"?><!DOCTYPE svg PUBLIC "-//W3C//DTD SVG 1.1//EN" "http://www.w3.org/Graphics/SVG/1.1/DTD/svg11.dtd"><svg width="100%" height="100%" viewBox="0 0 2001 2000" version="1.1" xmlns="http://www.w3.org/2000/svg" xmlns:xlink="http://www.w3.org/1999/xlink" xml:space="preserve" xmlns:serif="http://www.serif.com/" style="fill-rule:evenodd;clip-rule:evenodd;stroke-linejoin:round;stroke-miterlimit:2;"><rect id="Eyes-Pink-transp" x="0.054" y="0" width="2000" height="2000" style="fill:none;"/><g><g><path d="M984.153,1250.84c-33.552,37.385 -107.544,132.438 -107.544,243.674c0,111.236 73.992,206.29 107.544,243.675c-217.024,-11.203 -390.636,-243.675 -390.636,-243.675c0,0 173.612,-232.471 390.636,-243.674Zm32.38,0c217.023,11.203 390.635,243.674 390.635,243.674c0,0 -173.612,232.472 -390.635,243.675c33.551,-37.385 107.543,-132.439 107.543,-243.675c0,-111.236 -73.992,-206.289 -107.543,-243.674Z" style="fill:#f653a2;"/></g><g><path d="M984.153,261.87c-33.552,37.385 -107.544,132.438 -107.544,243.674c0,111.236 73.992,206.29 107.544,243.675c-217.024,-11.203 -390.636,-243.675 -390.636,-243.675c0,0 173.612,-232.471 390.636,-243.674Zm32.38,0c217.023,11.203 390.635,243.674 390.635,243.674c0,0 -173.612,232.472 -390.635,243.675c33.551,-37.385 107.543,-132.439 107.543,-243.675c0,-111.236 -73.992,-206.289 -107.543,-243.674Z" style="fill:#f653a2;"/></g><g><path d="M521.127,755.555c216.867,11.47 390.266,243.656 390.266,243.656c0,0 -173.399,232.186 -390.266,243.655c33.758,-37.697 107.369,-132.627 107.369,-243.655c0,-111.028 -73.611,-205.959 -107.369,-243.656Zm-33.119,0c-33.759,37.697 -107.37,132.628 -107.37,243.656c0,111.028 73.611,205.958 107.37,243.655c-216.868,-11.469 -390.266,-243.655 -390.266,-243.655c0,0 173.398,-232.186 390.266,-243.656Z" style="fill:#f653a2;"/></g><g><path d="M1480.16,755.555c-33.758,37.697 -107.369,132.628 -107.369,243.656c0,111.028 73.611,205.958 107.369,243.655c-216.867,-11.469 -390.266,-243.655 -390.266,-243.655c0,0 173.399,-232.186 390.266,-243.656Zm33.119,0c216.868,11.47 390.266,243.656 390.266,243.656c0,0 -173.398,232.186 -390.266,243.655c33.759,-37.697 107.37,-132.627 107.37,-243.655c0,-111.028 -73.611,-205.959 -107.37,-243.656Z" style="fill:#f653a2;"/></g></g></svg>