<?xml version="1.0" encoding="UTF-8" standalone="no"?><!DOCTYPE svg PUBLIC "-//W3C//DTD SVG 1.1//EN" "http://www.w3.org/Graphics/SVG/1.1/DTD/svg11.dtd"><svg width="100%" height="100%" viewBox="0 0 4501 1500" version="1.1" xmlns="http://www.w3.org/2000/svg" xmlns:xlink="http://www.w3.org/1999/xlink" xml:space="preserve" xmlns:serif="http://www.serif.com/" style="fill-rule:evenodd;clip-rule:evenodd;stroke-linejoin:round;stroke-miterlimit:2;"><rect id="Full-BlueBG-DarkBlue" x="0.322" y="0" width="4500" height="1500" style="fill:none;"/><clipPath id="_clip1"><rect x="0.322" y="0" width="4500" height="1500"/></clipPath><g clip-path="url(#_clip1)"><rect x="-26.091" y="0" width="4524.06" height="1500" style="fill:#52b2ed;"/><g><path id="v" d="M211.538,750.016l444.895,-444.477l444.579,444.592l-444.579,444.33l-444.895,-444.445Zm707.605,-133.406c-18.483,20.64 -58.787,72.616 -58.787,133.406c0,60.79 40.304,112.766 58.787,133.406c-118.739,-6.28 -213.678,-133.406 -213.678,-133.406c0,0 94.939,-127.127 213.678,-133.406Zm-525.09,0c118.74,6.279 213.679,133.406 213.679,133.406c0,0 -94.939,127.126 -213.679,133.406c18.484,-20.64 58.787,-72.616 58.787,-133.406c0,-60.79 -40.303,-112.766 -58.787,-133.406Zm-18.813,0.786c-18.786,21.13 -58.107,72.575 -58.107,132.62c0,60.279 39.629,111.892 58.327,132.867l96.177,96.194l0.452,-0.442c38.504,-37.627 102.51,-87.081 175.48,-90.848c-18.37,20.469 -58.882,72.513 -58.882,133.417c0,60.904 40.512,112.948 58.882,133.417l8.864,9.283l8.865,-9.283c18.37,-20.469 58.882,-72.513 58.882,-133.417c0,-60.904 -40.512,-112.948 -58.882,-133.417c73.255,3.782 137.477,53.609 175.931,91.29l98.447,-98.463l0.229,-0.262c19.465,-22.353 56.158,-72.332 56.158,-130.336c0,-58.231 -36.981,-108.374 -56.387,-130.598l-97.988,-98.005l-0.451,0.443c-38.465,37.678 -102.685,87.503 -175.939,91.284c18.37,-20.469 58.882,-72.512 58.882,-133.416c0,-60.904 -40.512,-112.948 -58.882,-133.417l-8.865,-10.18l-8.864,10.18c-18.37,20.469 -58.882,72.513 -58.882,133.417c0,60.904 40.512,112.947 58.882,133.416c-73.541,-3.796 -137.977,-53.997 -176.39,-91.727l-95.939,95.983Z" style="fill:#0d106e;"/><g transform="matrix(1.52865,0,0,1.52865,533.316,-765.067)"><text x="412.312px" y="1142.8px" style="font-family:'Moche-Regular', 'Moche';font-size:447.293px;fill:#0d106e;">HYDR</text><text x="1807.87px" y="1142.8px" style="font-family:'Moche-Regular', 'Moche';font-size:447.293px;fill:#0d106e;">A</text></g><text x="3781.46px" y="813.589px" style="font-family:'Pexico-Regular', 'Pexico';font-weight:100;font-size:390.499px;fill:#0d106e;">DX</text></g></g></svg>