<?xml version="1.0" encoding="UTF-8" standalone="no"?><!DOCTYPE svg PUBLIC "-//W3C//DTD SVG 1.1//EN" "http://www.w3.org/Graphics/SVG/1.1/DTD/svg11.dtd"><svg width="100%" height="100%" viewBox="0 0 4501 1500" version="1.1" xmlns="http://www.w3.org/2000/svg" xmlns:xlink="http://www.w3.org/1999/xlink" xml:space="preserve" xmlns:serif="http://www.serif.com/" style="fill-rule:evenodd;clip-rule:evenodd;stroke-linejoin:round;stroke-miterlimit:2;"><rect id="Full-Transp-White" x="0.106" y="0" width="4500" height="1500" style="fill:none;"/><g><path id="v" d="M211.322,750.016l444.896,-444.477l444.579,444.592l-444.579,444.33l-444.896,-444.445Zm707.606,-133.406c-18.484,20.64 -58.787,72.616 -58.787,133.406c0,60.79 40.303,112.766 58.787,133.406c-118.74,-6.28 -213.679,-133.406 -213.679,-133.406c0,0 94.939,-127.127 213.679,-133.406Zm-525.09,0c118.739,6.279 213.678,133.406 213.678,133.406c0,0 -94.939,127.126 -213.678,133.406c18.483,-20.64 58.787,-72.616 58.787,-133.406c0,-60.79 -40.304,-112.766 -58.787,-133.406Zm-18.814,0.786c-18.786,21.13 -58.107,72.575 -58.107,132.62c0,60.279 39.63,111.892 58.327,132.867l96.178,96.194l0.452,-0.442c38.504,-37.627 102.51,-87.081 175.48,-90.848c-18.371,20.469 -58.883,72.513 -58.883,133.417c0,60.904 40.512,112.948 58.883,133.417l8.864,9.283l8.864,-9.283c18.371,-20.469 58.883,-72.513 58.883,-133.417c0,-60.904 -40.512,-112.948 -58.883,-133.417c73.256,3.782 137.477,53.609 175.932,91.29l98.447,-98.463l0.228,-0.262c19.465,-22.353 56.159,-72.332 56.159,-130.336c0,-58.231 -36.982,-108.374 -56.387,-130.598l-97.988,-98.005l-0.452,0.443c-38.465,37.678 -102.685,87.503 -175.939,91.284c18.371,-20.469 58.883,-72.512 58.883,-133.416c0,-60.904 -40.512,-112.948 -58.883,-133.417l-8.864,-10.18l-8.864,10.18c-18.371,20.469 -58.883,72.513 -58.883,133.417c0,60.904 40.512,112.947 58.883,133.416c-73.541,-3.796 -137.977,-53.997 -176.391,-91.727l-95.939,95.983Z" style="fill:#fff;"/><g transform="matrix(1.52865,0,0,1.52865,533.1,-765.067)"><text x="412.312px" y="1142.8px" style="font-family:'Moche-Regular', 'Moche';font-size:447.293px;fill:#fff;">HYDR</text><text x="1807.87px" y="1142.8px" style="font-family:'Moche-Regular', 'Moche';font-size:447.293px;fill:#fff;">A</text></g><text x="3781.24px" y="813.589px" style="font-family:'Pexico-Regular', 'Pexico';font-weight:100;font-size:390.499px;fill:#fff;">DX</text></g></svg>