<?xml version="1.0" encoding="UTF-8" standalone="no"?><!DOCTYPE svg PUBLIC "-//W3C//DTD SVG 1.1//EN" "http://www.w3.org/Graphics/SVG/1.1/DTD/svg11.dtd"><svg width="100%" height="100%" viewBox="0 0 6001 1500" version="1.1" xmlns="http://www.w3.org/2000/svg" xmlns:xlink="http://www.w3.org/1999/xlink" xml:space="preserve" xmlns:serif="http://www.serif.com/" style="fill-rule:evenodd;clip-rule:evenodd;stroke-linecap:round;stroke-linejoin:round;stroke-miterlimit:1.5;"><rect id="Fullframe-Transp-Black" x="0.028" y="0" width="6000" height="1500" style="fill:none;"/><g><rect x="1224.68" y="201.357" width="3712.56" height="1097.29" style="fill:none;stroke:#000;stroke-width:10.29px;"/><rect x="4937.24" y="201.357" width="869.462" height="1097.29" style="fill:none;stroke:#000;stroke-width:10.29px;"/><rect x="193.354" y="201.357" width="1031.32" height="1097.29" style="fill:none;stroke:#000;stroke-width:10.29px;"/><path id="v" d="M337.165,750.013l371.983,-371.632l371.718,371.729l-371.718,371.509l-371.983,-371.606Zm591.638,-111.542c-15.454,17.257 -49.152,60.715 -49.152,111.542c0,50.828 33.698,94.286 49.152,111.543c-99.279,-5.251 -178.659,-111.543 -178.659,-111.543c0,0 79.38,-106.292 178.659,-111.542Zm-439.034,0c99.279,5.25 178.659,111.542 178.659,111.542c0,0 -79.38,106.292 -178.659,111.543c15.454,-17.257 49.152,-60.715 49.152,-111.543c0,-50.827 -33.698,-94.285 -49.152,-111.542Zm-15.731,0.657c-15.707,17.667 -48.583,60.681 -48.583,110.885c0,50.401 33.134,93.555 48.767,111.092l80.416,80.429l0.378,-0.369c32.193,-31.461 85.71,-72.81 146.721,-75.959c-15.36,17.114 -49.233,60.629 -49.233,111.551c0,50.923 33.873,94.437 49.233,111.552l7.411,7.762l7.412,-7.762c15.36,-17.115 49.232,-60.629 49.232,-111.552c0,-50.922 -33.872,-94.437 -49.232,-111.551c61.25,3.161 114.946,44.822 147.099,76.328l82.312,-82.326l0.191,-0.219c16.275,-18.69 46.955,-60.478 46.955,-108.976c0,-48.687 -30.92,-90.613 -47.146,-109.194l-81.929,-81.943l-0.377,0.37c-32.161,31.503 -85.857,73.162 -147.105,76.324c15.36,-17.115 49.232,-60.629 49.232,-111.552c0,-50.922 -33.872,-94.437 -49.232,-111.551l-7.412,-8.511l-7.411,8.511c-15.36,17.114 -49.233,60.629 -49.233,111.551c0,50.923 33.873,94.437 49.233,111.552c-61.489,-3.174 -115.365,-45.148 -147.483,-76.694l-80.216,80.252Z"/><g transform="matrix(1.8594,0,0,1.8594,706.022,-1092.88)"><text x="412.312px" y="1142.8px" style="font-family:'Moche-Regular', 'Moche';font-size:447.293px;">HYDR</text><text x="1807.87px" y="1142.8px" style="font-family:'Moche-Regular', 'Moche';font-size:447.293px;">A</text></g><text x="5097.04px" y="886.149px" style="font-family:'Pexico-Regular', 'Pexico';font-weight:100;font-size:392.763px;">DX</text></g></svg>