<?xml version="1.0" encoding="UTF-8" standalone="no"?><!DOCTYPE svg PUBLIC "-//W3C//DTD SVG 1.1//EN" "http://www.w3.org/Graphics/SVG/1.1/DTD/svg11.dtd"><svg width="100%" height="100%" viewBox="0 0 4001 2000" version="1.1" xmlns="http://www.w3.org/2000/svg" xmlns:xlink="http://www.w3.org/1999/xlink" xml:space="preserve" xmlns:serif="http://www.serif.com/" style="fill-rule:evenodd;clip-rule:evenodd;stroke-linejoin:round;stroke-miterlimit:2;"><rect id="HDX-BlueBG-DarkBlue" x="0.027" y="0" width="4000" height="2000" style="fill:none;"/><clipPath id="_clip1"><rect x="0.027" y="0" width="4000" height="2000"/></clipPath><g clip-path="url(#_clip1)"><rect x="0.027" y="0" width="4000" height="2000" style="fill:#52b2ed;"/><g><path id="v" d="M206.111,1000.03l832.81,-832.025l832.217,832.241l-832.217,831.749l-832.81,-831.965Zm1324.58,-249.726c-34.6,38.636 -110.045,135.931 -110.045,249.726c0,113.794 75.445,211.089 110.045,249.725c-222.271,-11.755 -399.989,-249.725 -399.989,-249.725c0,0 177.718,-237.971 399.989,-249.726Zm-982.928,0c222.271,11.755 399.99,249.726 399.99,249.726c0,0 -177.719,237.97 -399.99,249.725c34.6,-38.636 110.045,-135.931 110.045,-249.725c0,-113.795 -75.445,-211.09 -110.045,-249.726Zm-35.217,1.471c-35.166,39.555 -108.771,135.856 -108.771,248.255c0,112.838 74.183,209.453 109.183,248.717l180.037,180.067l0.846,-0.827c72.076,-70.436 191.891,-163.009 328.485,-170.06c-34.388,38.316 -110.224,135.738 -110.224,249.745c0,114.008 75.836,211.43 110.224,249.746l16.593,17.378l16.593,-17.378c34.388,-38.316 110.223,-135.738 110.223,-249.746c0,-114.007 -75.835,-211.429 -110.223,-249.745c137.129,7.079 257.346,100.351 329.331,170.887l184.284,-184.315l0.428,-0.49c36.437,-41.844 105.125,-135.401 105.125,-243.979c0,-109.004 -69.227,-202.868 -105.553,-244.469l-183.426,-183.457l-0.844,0.829c-72.004,70.53 -192.219,163.798 -329.345,170.876c34.388,-38.316 110.223,-135.738 110.223,-249.745c0,-114.008 -75.835,-211.429 -110.223,-249.746l-16.593,-19.055l-16.593,19.055c-34.388,38.317 -110.224,135.738 -110.224,249.746c0,114.007 75.836,211.429 110.224,249.745c-137.663,-7.106 -258.282,-101.078 -330.19,-171.705l-179.59,179.671Z" style="fill:#0d106e;"/><text x="2027.98px" y="1310.13px" style="font-family:'Pexico-Regular', 'Pexico';font-weight:100;font-size:882.98px;fill:#0d106e;">HDX</text></g></g></svg>