<?xml version="1.0" encoding="UTF-8" standalone="no"?><!DOCTYPE svg PUBLIC "-//W3C//DTD SVG 1.1//EN" "http://www.w3.org/Graphics/SVG/1.1/DTD/svg11.dtd"><svg width="100%" height="100%" viewBox="0 0 4001 2000" version="1.1" xmlns="http://www.w3.org/2000/svg" xmlns:xlink="http://www.w3.org/1999/xlink" xml:space="preserve" xmlns:serif="http://www.serif.com/" style="fill-rule:evenodd;clip-rule:evenodd;stroke-linejoin:round;stroke-miterlimit:2;"><rect id="HDX-Transp-Pink" x="0.813" y="0" width="4000" height="2000" style="fill:none;"/><g><path id="v" d="M206.897,1000.03l832.809,-832.025l832.217,832.241l-832.217,831.749l-832.809,-831.965Zm1324.58,-249.726c-34.6,38.636 -110.045,135.931 -110.045,249.726c0,113.794 75.445,211.089 110.045,249.725c-222.271,-11.755 -399.99,-249.725 -399.99,-249.725c0,0 177.719,-237.971 399.99,-249.726Zm-982.928,0c222.271,11.755 399.989,249.726 399.989,249.726c0,0 -177.718,237.97 -399.989,249.725c34.6,-38.636 110.045,-135.931 110.045,-249.725c0,-113.795 -75.445,-211.09 -110.045,-249.726Zm-35.217,1.471c-35.166,39.555 -108.772,135.856 -108.772,248.255c0,112.838 74.184,209.453 109.184,248.717l180.037,180.067l0.845,-0.827c72.077,-70.436 191.891,-163.009 328.485,-170.06c-34.388,38.316 -110.223,135.738 -110.223,249.745c0,114.008 75.835,211.43 110.223,249.746l16.593,17.378l16.594,-17.378c34.387,-38.316 110.223,-135.738 110.223,-249.746c0,-114.007 -75.836,-211.429 -110.223,-249.745c137.128,7.079 257.346,100.351 329.33,170.887l184.285,-184.315l0.427,-0.49c36.438,-41.844 105.125,-135.401 105.125,-243.979c0,-109.004 -69.226,-202.868 -105.552,-244.469l-183.426,-183.457l-0.845,0.829c-72.003,70.53 -192.219,163.798 -329.344,170.876c34.387,-38.316 110.223,-135.738 110.223,-249.745c0,-114.008 -75.836,-211.429 -110.223,-249.746l-16.594,-19.055l-16.593,19.055c-34.388,38.317 -110.223,135.738 -110.223,249.746c0,114.007 75.835,211.429 110.223,249.745c-137.662,-7.106 -258.282,-101.078 -330.189,-171.705l-179.59,179.671Z" style="fill:#f653a2;"/><text x="2028.77px" y="1310.13px" style="font-family:'Pexico-Regular', 'Pexico';font-weight:100;font-size:882.98px;fill:#f653a2;">HDX</text></g></svg>